<svg xmlns="http://www.w3.org/2000/svg" width="256" height="256" viewBox="0 0 100 100"><rect width="100" height="100" rx="50" fill="#000000"></rect><path d="M35.47 79.16L35.47 79.16Q30.15 79.16 26.58 77.27Q23.01 75.38 21.19 71.42Q19.37 67.47 19.16 61.16L19.16 61.16L29.87 59.55Q29.94 63.19 30.54 65.44Q31.13 67.67 32.22 68.66Q33.30 69.63 34.84 69.63L34.84 69.63Q36.80 69.63 37.40 68.30Q37.99 66.97 37.99 65.50L37.99 65.50Q37.99 62.00 36.31 59.59Q34.63 57.17 31.76 54.72L31.76 54.72L26.86 50.45Q23.64 47.72 21.44 44.26Q19.23 40.79 19.23 35.68L19.23 35.68Q19.23 28.47 23.50 24.66Q27.77 20.84 35.12 20.84L35.12 20.84Q39.67 20.84 42.44 22.38Q45.20 23.92 46.64 26.41Q48.07 28.89 48.60 31.66Q49.13 34.42 49.19 36.94L49.19 36.94L38.41 38.27Q38.34 35.75 38.10 33.90Q37.85 32.04 37.08 31.03Q36.31 30.01 34.70 30.01L34.70 30.01Q32.95 30.01 32.15 31.48Q31.34 32.95 31.34 34.42L31.34 34.42Q31.34 37.57 32.85 39.57Q34.35 41.56 36.80 43.73L36.80 43.73L41.49 47.86Q45.20 51.01 47.76 55.00Q50.31 58.99 50.31 64.88L50.31 64.88Q50.31 68.86 48.49 72.12Q46.67 75.38 43.35 77.27Q40.02 79.16 35.47 79.16ZM80.84 78.31L55.29 78.31L55.29 21.61L67.81 21.61L67.81 69.84L80.84 69.84L80.84 78.31Z" fill="#fff"></path></svg>